<mxfile host="Electron" modified="2022-09-29T02:27:22.308Z" agent="5.0 (Windows NT 10.0; Win64; x64) AppleWebKit/537.36 (KHTML, like Gecko) draw.io/20.3.0 Chrome/104.0.5112.114 Electron/20.1.3 Safari/537.36" etag="nFwqd1SBgu-H501DL-TU" compressed="false" version="20.3.0" type="device" pages="2">
  <diagram id="zHJoLA6md0Yeo67uzJwa" name="第1頁">
    <mxGraphModel dx="782" dy="539" grid="1" gridSize="5" guides="0" tooltips="1" connect="1" arrows="1" fold="1" page="1" pageScale="1" pageWidth="827" pageHeight="1169" math="0" shadow="0">
      <root>
        <mxCell id="0" />
        <mxCell id="1" parent="0" />
        <mxCell id="m3pfPtTyuK7HYTcpv6uo-1" style="edgeStyle=orthogonalEdgeStyle;rounded=1;sketch=0;orthogonalLoop=1;jettySize=auto;html=1;fontFamily=Helvetica;fontSize=16;strokeWidth=2;exitX=0.5;exitY=1;exitDx=0;exitDy=0;fontStyle=1" parent="1" source="m3pfPtTyuK7HYTcpv6uo-2" target="ai_2cDfEiX9HVFkp-4g_-1" edge="1">
          <mxGeometry relative="1" as="geometry">
            <mxPoint x="330" y="20" as="sourcePoint" />
            <mxPoint x="360.0000000000001" y="180" as="targetPoint" />
          </mxGeometry>
        </mxCell>
        <object label="" type="ENTRY_POINT" id="m3pfPtTyuK7HYTcpv6uo-2">
          <mxCell style="ellipse;fontStyle=1;fontSize=16;sketch=0;rounded=1;align=left;fontFamily=Helvetica;strokeWidth=2;shadow=0;html=0;" parent="1" vertex="1">
            <mxGeometry x="340" y="100" width="40" height="40" as="geometry" />
          </mxCell>
        </object>
        <object label="" type="EXIT_POINT" id="m3pfPtTyuK7HYTcpv6uo-22">
          <mxCell style="shape=sumEllipse;perimeter=ellipsePerimeter;backgroundOutline=1;fontStyle=1;fontSize=16;sketch=0;rounded=1;fontFamily=Tahoma;align=left;strokeWidth=2;shadow=0;html=0;" parent="1" vertex="1">
            <mxGeometry x="340" y="800" width="40" height="40" as="geometry" />
          </mxCell>
        </object>
        <mxCell id="UbTHWvcrtNXVTwTKfJbN-1" value="讀取文字檔，找出第幾行有出現Z" style="text;html=1;strokeColor=default;fillColor=none;align=left;verticalAlign=middle;whiteSpace=wrap;rounded=0;spacingLeft=5;strokeWidth=1;fontSize=16;movable=1;resizable=1;rotatable=1;deletable=1;editable=1;connectable=1;fontFamily=Helvetica;fontStyle=1" parent="1" vertex="1">
          <mxGeometry x="140" y="20" width="580" height="40" as="geometry" />
        </mxCell>
        <mxCell id="UbTHWvcrtNXVTwTKfJbN-2" value="範例 4" style="rounded=0;whiteSpace=wrap;html=1;fillColor=#000000;fontColor=#FFFFFF;fontSize=16;fontStyle=1;strokeWidth=1;movable=1;resizable=1;rotatable=1;deletable=1;editable=1;connectable=1;fontFamily=Helvetica;" parent="1" vertex="1">
          <mxGeometry x="40" y="20" width="100" height="40" as="geometry" />
        </mxCell>
        <mxCell id="idDw4R9JF5c2FKg-5Vj5-6" style="edgeStyle=orthogonalEdgeStyle;rounded=0;orthogonalLoop=1;jettySize=auto;html=1;entryX=0.5;entryY=0;entryDx=0;entryDy=0;entryPerimeter=0;fontFamily=Helvetica;fontSize=16;exitX=0.5;exitY=1;exitDx=0;exitDy=0;fontStyle=1;strokeWidth=2;" parent="1" source="ai_2cDfEiX9HVFkp-4g_-4" target="idDw4R9JF5c2FKg-5Vj5-2" edge="1">
          <mxGeometry relative="1" as="geometry">
            <mxPoint x="360" y="340" as="sourcePoint" />
          </mxGeometry>
        </mxCell>
        <mxCell id="idDw4R9JF5c2FKg-5Vj5-5" style="edgeStyle=orthogonalEdgeStyle;rounded=0;orthogonalLoop=1;jettySize=auto;html=1;fontFamily=Tahoma;fontSize=16;entryX=0;entryY=0.5;entryDx=0;entryDy=0;fontStyle=1;strokeWidth=2;" parent="1" source="idDw4R9JF5c2FKg-5Vj5-2" target="idDw4R9JF5c2FKg-5Vj5-3" edge="1">
          <mxGeometry relative="1" as="geometry" />
        </mxCell>
        <mxCell id="idDw4R9JF5c2FKg-5Vj5-8" value="true" style="edgeLabel;html=1;align=center;verticalAlign=middle;resizable=0;points=[];fontSize=16;fontFamily=Tahoma;fontStyle=1" parent="idDw4R9JF5c2FKg-5Vj5-5" vertex="1" connectable="0">
          <mxGeometry x="-0.2417" relative="1" as="geometry">
            <mxPoint x="2" y="-15" as="offset" />
          </mxGeometry>
        </mxCell>
        <mxCell id="idDw4R9JF5c2FKg-5Vj5-17" style="edgeStyle=orthogonalEdgeStyle;rounded=0;orthogonalLoop=1;jettySize=auto;html=1;fontFamily=Tahoma;fontSize=16;fontStyle=1;strokeWidth=2;" parent="1" source="idDw4R9JF5c2FKg-5Vj5-2" target="idDw4R9JF5c2FKg-5Vj5-7" edge="1">
          <mxGeometry relative="1" as="geometry" />
        </mxCell>
        <mxCell id="idDw4R9JF5c2FKg-5Vj5-18" value="false" style="edgeLabel;html=1;align=center;verticalAlign=middle;resizable=0;points=[];fontSize=16;fontFamily=Tahoma;fontStyle=1" parent="idDw4R9JF5c2FKg-5Vj5-17" vertex="1" connectable="0">
          <mxGeometry x="0.2357" y="-1" relative="1" as="geometry">
            <mxPoint x="26" y="-5" as="offset" />
          </mxGeometry>
        </mxCell>
        <object label="lines[i] === &#39;Z&#39;" type="DECISION" id="idDw4R9JF5c2FKg-5Vj5-2">
          <mxCell style="strokeWidth=2;html=1;shape=mxgraph.flowchart.decision;whiteSpace=wrap;rounded=0;shadow=0;fontFamily=Tahoma;fontSize=16;fontStyle=1" parent="1" vertex="1">
            <mxGeometry x="260" y="400" width="200" height="60" as="geometry" />
          </mxCell>
        </object>
        <mxCell id="idDw4R9JF5c2FKg-5Vj5-4" style="edgeStyle=orthogonalEdgeStyle;rounded=1;orthogonalLoop=1;jettySize=auto;html=1;entryX=1;entryY=0.5;entryDx=0;entryDy=0;fontFamily=Tahoma;fontSize=16;exitX=0.5;exitY=1;exitDx=0;exitDy=0;fontStyle=1;strokeWidth=2;" parent="1" source="idDw4R9JF5c2FKg-5Vj5-3" target="m3pfPtTyuK7HYTcpv6uo-22" edge="1">
          <mxGeometry relative="1" as="geometry" />
        </mxCell>
        <object label="print(&#39;Z 在第&#39;, i, &#39;行&#39; )" type="PROCESS" id="idDw4R9JF5c2FKg-5Vj5-3">
          <mxCell style="fontSize=16;fontStyle=1;sketch=0;rounded=0;fontFamily=Tahoma;align=center;strokeWidth=2;arcSize=7;shadow=0;html=0;spacingLeft=5;verticalAlign=middle;spacingTop=0;spacing=5;" parent="1" vertex="1">
            <mxGeometry x="560" y="400" width="200" height="60" as="geometry" />
          </mxCell>
        </object>
        <mxCell id="idDw4R9JF5c2FKg-5Vj5-14" style="edgeStyle=orthogonalEdgeStyle;rounded=0;orthogonalLoop=1;jettySize=auto;html=1;fontFamily=Tahoma;fontSize=16;fontStyle=1;strokeWidth=2;" parent="1" source="idDw4R9JF5c2FKg-5Vj5-7" target="idDw4R9JF5c2FKg-5Vj5-10" edge="1">
          <mxGeometry relative="1" as="geometry" />
        </mxCell>
        <object label="i++" type="PROCESS" id="idDw4R9JF5c2FKg-5Vj5-7">
          <mxCell style="fontSize=16;fontStyle=1;sketch=0;rounded=0;fontFamily=Tahoma;align=center;strokeWidth=2;arcSize=7;shadow=0;html=0;spacingLeft=5;verticalAlign=middle;spacingTop=0;spacing=5;" parent="1" vertex="1">
            <mxGeometry x="260" y="500" width="200" height="60" as="geometry" />
          </mxCell>
        </object>
        <mxCell id="idDw4R9JF5c2FKg-5Vj5-19" style="edgeStyle=orthogonalEdgeStyle;rounded=1;orthogonalLoop=1;jettySize=auto;html=1;fontFamily=Tahoma;fontSize=16;entryX=0;entryY=0.5;entryDx=0;entryDy=0;entryPerimeter=0;fontStyle=1;strokeWidth=2;" parent="1" source="idDw4R9JF5c2FKg-5Vj5-10" target="idDw4R9JF5c2FKg-5Vj5-2" edge="1">
          <mxGeometry relative="1" as="geometry">
            <mxPoint x="135" y="475" as="targetPoint" />
            <Array as="points">
              <mxPoint x="175" y="630" />
              <mxPoint x="175" y="430" />
            </Array>
          </mxGeometry>
        </mxCell>
        <mxCell id="idDw4R9JF5c2FKg-5Vj5-20" value="false" style="edgeLabel;html=1;align=center;verticalAlign=middle;resizable=0;points=[];fontSize=16;fontFamily=Tahoma;fontStyle=1" parent="idDw4R9JF5c2FKg-5Vj5-19" vertex="1" connectable="0">
          <mxGeometry x="0.2303" y="2" relative="1" as="geometry">
            <mxPoint x="57" y="157" as="offset" />
          </mxGeometry>
        </mxCell>
        <mxCell id="idDw4R9JF5c2FKg-5Vj5-21" style="edgeStyle=orthogonalEdgeStyle;rounded=0;orthogonalLoop=1;jettySize=auto;html=1;entryX=0.5;entryY=0;entryDx=0;entryDy=0;fontFamily=Tahoma;fontSize=16;fontStyle=1;strokeWidth=2;" parent="1" source="idDw4R9JF5c2FKg-5Vj5-10" target="ai_2cDfEiX9HVFkp-4g_-13" edge="1">
          <mxGeometry relative="1" as="geometry" />
        </mxCell>
        <mxCell id="idDw4R9JF5c2FKg-5Vj5-22" value="true" style="edgeLabel;html=1;align=center;verticalAlign=middle;resizable=0;points=[];fontSize=16;fontFamily=Tahoma;fontStyle=1" parent="idDw4R9JF5c2FKg-5Vj5-21" vertex="1" connectable="0">
          <mxGeometry x="-0.2733" y="1" relative="1" as="geometry">
            <mxPoint x="19" as="offset" />
          </mxGeometry>
        </mxCell>
        <object label="i &amp;gt;= lines.length" type="DECISION" id="idDw4R9JF5c2FKg-5Vj5-10">
          <mxCell style="strokeWidth=2;html=1;shape=mxgraph.flowchart.decision;whiteSpace=wrap;rounded=0;shadow=0;fontFamily=Tahoma;fontSize=16;fontStyle=1" parent="1" vertex="1">
            <mxGeometry x="260" y="600" width="200" height="60" as="geometry" />
          </mxCell>
        </object>
        <mxCell id="ai_2cDfEiX9HVFkp-4g_-3" style="edgeStyle=orthogonalEdgeStyle;rounded=0;orthogonalLoop=1;jettySize=auto;html=1;fontFamily=Helvetica;fontSize=16;entryX=0.5;entryY=0;entryDx=0;entryDy=0;strokeWidth=2;" parent="1" source="ai_2cDfEiX9HVFkp-4g_-1" target="ai_2cDfEiX9HVFkp-4g_-4" edge="1">
          <mxGeometry relative="1" as="geometry">
            <mxPoint x="360" y="280" as="targetPoint" />
          </mxGeometry>
        </mxCell>
        <object label="讀取檔案內容" type="PROCESS" id="ai_2cDfEiX9HVFkp-4g_-1">
          <mxCell style="swimlane;fontStyle=1;childLayout=stackLayout;horizontal=1;startSize=26;horizontalStack=0;resizeParent=1;resizeParentMax=0;resizeLast=0;collapsible=1;marginBottom=0;fontFamily=Helvetica;fontSize=16;align=left;spacingLeft=20;strokeWidth=2;fillColor=#f8cecc;strokeColor=#b85450;" parent="1" vertex="1">
            <mxGeometry x="190" y="180" width="340" height="61" as="geometry">
              <mxRectangle x="260" y="200" width="200" height="30" as="alternateBounds" />
            </mxGeometry>
          </mxCell>
        </object>
        <mxCell id="ai_2cDfEiX9HVFkp-4g_-2" value="var lines = file.readLines(&#39;../tests/test.txt&#39;);" style="text;strokeColor=default;fillColor=none;align=left;verticalAlign=top;spacingLeft=4;spacingRight=4;overflow=hidden;rotatable=0;points=[[0,0.5],[1,0.5]];portConstraint=eastwest;fontFamily=Helvetica;fontSize=16;autosize=1;fontStyle=1" parent="ai_2cDfEiX9HVFkp-4g_-1" vertex="1">
          <mxGeometry y="26" width="340" height="35" as="geometry" />
        </mxCell>
        <object label="初始化陣列索引" type="PROCESS" id="ai_2cDfEiX9HVFkp-4g_-4">
          <mxCell style="swimlane;fontStyle=1;childLayout=stackLayout;horizontal=1;startSize=26;fillColor=#f8cecc;horizontalStack=0;resizeParent=1;resizeParentMax=0;resizeLast=0;collapsible=1;marginBottom=0;fontFamily=Helvetica;fontSize=16;align=left;spacingLeft=20;strokeWidth=2;strokeColor=#b85450;" parent="1" vertex="1">
            <mxGeometry x="260" y="280" width="200" height="61" as="geometry">
              <mxRectangle x="260" y="280" width="160" height="30" as="alternateBounds" />
            </mxGeometry>
          </mxCell>
        </object>
        <mxCell id="ai_2cDfEiX9HVFkp-4g_-5" value="i = 0" style="text;strokeColor=default;fillColor=none;align=left;verticalAlign=top;spacingLeft=4;spacingRight=4;overflow=hidden;rotatable=0;points=[[0,0.5],[1,0.5]];portConstraint=eastwest;fontFamily=Helvetica;fontSize=16;autosize=1;fontStyle=1" parent="ai_2cDfEiX9HVFkp-4g_-4" vertex="1">
          <mxGeometry y="26" width="200" height="35" as="geometry" />
        </mxCell>
        <mxCell id="ai_2cDfEiX9HVFkp-4g_-15" style="edgeStyle=orthogonalEdgeStyle;rounded=1;orthogonalLoop=1;jettySize=auto;html=1;entryX=0.5;entryY=0;entryDx=0;entryDy=0;strokeWidth=2;fontFamily=Tahoma;fontSize=16;" parent="1" source="ai_2cDfEiX9HVFkp-4g_-13" target="m3pfPtTyuK7HYTcpv6uo-22" edge="1">
          <mxGeometry relative="1" as="geometry" />
        </mxCell>
        <object label="print(&#39;找不到Z&#39; )" type="PROCESS" id="ai_2cDfEiX9HVFkp-4g_-13">
          <mxCell style="fontSize=16;fontStyle=1;sketch=0;rounded=0;fontFamily=Tahoma;align=center;strokeWidth=2;arcSize=7;shadow=0;html=0;spacingLeft=5;verticalAlign=middle;spacingTop=0;spacing=5;" parent="1" vertex="1">
            <mxGeometry x="260" y="700" width="200" height="60" as="geometry" />
          </mxCell>
        </object>
      </root>
    </mxGraphModel>
  </diagram>
  <diagram id="aGNKJdSmAKUPN5pgu-52" name="第2頁">
    <mxGraphModel dx="782" dy="539" grid="1" gridSize="10" guides="1" tooltips="1" connect="1" arrows="1" fold="1" page="1" pageScale="1" pageWidth="1169" pageHeight="827" math="0" shadow="0">
      <root>
        <mxCell id="0" />
        <mxCell id="1" parent="0" />
      </root>
    </mxGraphModel>
  </diagram>
</mxfile>
